# xmcd CD database file
#
# Track frame offsets:
#	150
#	25735
#	47642
#	64171
#	87099
#	106092
#	125036
#	140944
#	164152
#	184026
#	197415
#	244056
#
# Disc length: 3442 seconds
#
# Revision: 0
# Processed by: cddbd v1.5.2PL0 Copyright (c) Steve Scherf et al.
# Submitted via: CDex 1.51
#
DISCID=a80d700c
DTITLE=AAVV - Latino! Greatest Hits 2008 - Cd2
DYEAR=2008
DGENRE=Salsa
TTITLE0=Manolito y Su Trabuco - Marcando La Distancia
TTITLE1=Sonora Carruseles Feat. Bimbo - Micaela
TTITLE2=Wilfrido Vargas - A Mover La Colita
TTITLE3=Issac Delgado - La Vida Es Un Carnaval
TTITLE4=Celia Cruz - La Negra Tiene Tumbao
TTITLE5=Aventura - Obsesion
TTITLE6=Cubanito 20.02 - Soy Yo
TTITLE7=Lalo Rodriguez - Ven Devórame Otra Vez
TTITLE8=Los Titanes - Ella Sabe Que Me Gusta
TTITLE9=Osdalgia - Halo De Luna
TTITLE10=Hector Lavoe - El Cantante
TTITLE11=Hector and Tito Feat. Luny Tunes and Noriega - Baila Morena
EXTD=YEAR: 2008
EXTT0=
EXTT1=
EXTT2=
EXTT3=
EXTT4=
EXTT5=
EXTT6=
EXTT7=
EXTT8=
EXTT9=
EXTT10=
EXTT11=
PLAYORDER=
